# xmcd CD database file
#
# Track frame offsets:
#	182
#	13797
#	26247
#	36350
#	53462
#	65970
#	79282
#	91992
#	109977
#	127102
#	143882
#	158920
#
# Disc length: 2339 seconds
#
# Revision: 2
# Processed by: cddbd v1.4PL0 Copyright (c) Steve Scherf et al.
# Submitted via: CDex 1.40Release
#
DISCID=ac09210c
DTITLE=The Rolling Stones - Hot Rocks 1964-1971 [CD1]
DYEAR=1900
DGENRE=
TTITLE0=Time Is On My Side
TTITLE1=Heart Of Stone
TTITLE2=Play With Fire
TTITLE3=(I Can't Get No) Satisfaction
TTITLE4=As Tears Go By
TTITLE5=Get Off Of My Cloud
TTITLE6=Mother's Little Helper
TTITLE7=19th Nervous Breakdown
TTITLE8=Paint It Black
TTITLE9=Under My Thumb
TTITLE10=Ruby Tuesday
TTITLE11=Let's Spend The Night Together
EXTD=
EXTT0=
EXTT1=
EXTT2=
EXTT3=
EXTT4=
EXTT5=
EXTT6=
EXTT7=
EXTT8=
EXTT9=
EXTT10=
EXTT11=
PLAYORDER=
